<?xml version="1.0" encoding="UTF-8" standalone="no"?>
<!-- Created with Inkscape (http://www.inkscape.org/) -->
<svg id="svg4340" xmlns:rdf="http://www.w3.org/1999/02/22-rdf-syntax-ns#" xmlns="http://www.w3.org/2000/svg" height="160" width="80" version="1.1" xmlns:cc="http://creativecommons.org/ns#" xmlns:dc="http://purl.org/dc/elements/1.1/" viewBox="0 0 80.000001 160">
 <metadata id="metadata4345">
  <rdf:RDF>
   <cc:Work rdf:about="">
    <dc:format>image/svg+xml</dc:format>
    <dc:type rdf:resource="http://purl.org/dc/dcmitype/StillImage"/>
    <dc:title/>
   </cc:Work>
  </rdf:RDF>
 </metadata>
 <g id="layer1" transform="translate(0 -892.36)" fill="#00e1d4">
  <path id="path7-3" d="m40 972.36c-22.055 0-40-17.94-40-40 0-22.055 17.945-40 40-40s40 17.945 40 40c0 22.056-17.945 40-40 40zm0-75.826c-19.755 0-35.826 16.071-35.826 35.826s16.071 35.826 35.826 35.826 35.826-16.071 35.826-35.826-16.071-35.826-35.826-35.826z"/>
  <g id="g9" transform="matrix(1.1679 0 0 1.1679 -185.69 871.83)">
   <polygon id="polygon11" points="184.7 38.652 184.7 62.925 205.72 50.789" fill="#00e1d4"/>
  </g>
  <path id="path7-3-6" d="m40 1052.4c-22.055 0-40-18-40-40 0-22.09 17.945-40.04 40-40.04s40 17.95 40 40.04c0 22.056-17.945 40-40 40zm0-75.826c-19.755 0-35.826 16.071-35.826 35.826s16.071 35.826 35.826 35.826 35.826-16.071 35.826-35.826-16.071-35.826-35.826-35.826z"/>
  <rect id="rect4950" height="28.214" width="7.5" y="998.96" x="28"/>
  <rect id="rect4950-3" height="28.214" width="7.5" y="998.96" x="44.246"/>
 </g>
</svg>
